<?xml version="1.0" encoding="UTF-8"?>
<!-- Generator: Adobe Illustrator 21.0.0, SVG Export Plug-In . SVG Version: 6.00 Build 0)  -->
<svg version="1.1" id="Layer_3" xmlns="http://www.w3.org/2000/svg" xmlns:xlink="http://www.w3.org/1999/xlink" x="0px" y="0px" viewBox="0 0 331.3 62.5" style="enable-background:new 0 0 331.3 62.5;" xml:space="preserve">
<style type="text/css">
	.st0{fill:#E2E2E2;}
	.st1{fill:#FFFFFF;}
	.st2{fill:#0089CF;}
	.st3{fill:none;}
	.st4{fill:#B94A85;}
	.st5{clip-path:url(#SVGID_2_);}
	.st6{enable-background:new    ;}
	.st7{clip-path:url(#SVGID_4_);}
	.st8{clip-path:url(#SVGID_6_);}
</style>
<rect x="197.1" y="0.3" class="st0" width="32.3" height="61.8"/>
<polygon class="st1" points="0,0 0,62.5 210.4,62.5 210.4,40.3 219.4,31.2 210.4,22.2 210.4,0 "/>
<polygon points="25.7,48 13.3,14.7 20.7,14.7 30.3,40.5 39.6,14.7 44.6,14.7 32.6,48 "/>
<path d="M48.6,35.1c0,3.9,0.6,6.7,1.7,8.4c1.2,1.8,2.7,3.1,4.7,4s4.4,1.3,7.1,1.3c2.8,0,5.1-0.5,7-1.4c1.8-1,3.2-2.3,4.2-4  s1.5-4.4,1.5-8.3V14.7h-6v20.9c0,3.4-0.6,5.7-1.7,6.9c-1.2,1.2-2.7,1.8-4.7,1.8c-2,0-3.6-0.6-4.9-1.8c-1.3-1.2-1.9-3.7-1.9-7.3V14.7  h-6.9L48.6,35.1L48.6,35.1z"/>
<path class="st2" d="M122,14.8c0.5,0,1,0,0.8,0.7c0,0.5-0.2,0.7-1,0.9c-2.4,0.4-3.4,0.9-7,2.4c1.7-0.5,3.2-0.8,4-0.8  c0.4,0,0.6,0,0.6,0.4c0,0.5-0.3,0.8-0.7,0.9c-2.1,0.7-4.9,2-7.5,3.1c2.7-0.8,4-0.8,4.6-0.8c0.4-0.1,0.9-0.1,0.7,0.6  c-0.1,0.6-0.3,0.8-1.3,1.1c-3.9,1-6.4,2-10.7,4.2c4.6-1.3,7.6-1.5,9.6-1.6c1,0,1.4,0,1.3,0.6c0,0.5-0.1,0.8-1,1  c-2.8,0.8-6.3,1.5-9.2,2.7c1.3-0.2,2.6-0.4,3.3-0.3c0.6,0.1,0.9,0.2,0.8,0.7c-0.1,0.6-0.5,0.9-1.2,1c-2.5,0.2-3.3,0.5-6.3,1.4  c0.6,0,0.6,0.4,0.3,0.7c-0.3,0.4-0.7,0.7-1.2,0.7c-0.9,0-2.8,0.1-4.2,1c-0.8,0.6-1.2-0.8-0.8-1.3c1.1-1.2,4.4-3,6.1-4.2  c-3.3,1.6-6.4,3-9.3,5.7c-1,0.9-1.5,0.5-1.6,0.1c-0.1-0.5-0.1-0.8-0.6-0.5c-0.4,0.2-0.6,0.4-1.3,1l0,0L88.5,37l0,0l-4.2,3.8v-0.9  l3.3-3V36l-1.9,1.7v-0.9l2.8-2.5v-2.4l2.3-0.2L88.9,31c1-0.8,1.9-0.2,2.2,0.1c0-0.1,0.1-0.8-0.5-1.2c-0.3-0.1-0.6-0.3-1.2-0.2  c-0.8-0.7-1.7-0.3-2.1,0.1c-0.7-0.9-1.6-1-1.6-1l0.7,1.5l-1.2-0.4l0.9,1.2c-0.5,0.8-1.1,1.8-1.6,3.6c-0.2,0.7-0.4,2.1-0.4,3.4  c0,0.1,0,0.2,0,0.3c-1.1-2.5-2.3-6.5-2.3-11.2c0-3,0.5-7.3,2.7-11.9c2.3-4.9,5.1-7.6,7.2-9.5c1-0.9,1.5-1.2,2.1-1.3  c0.4,0,0.7,0.1,0.9,0.6c0.3,1,0.2,1.1,0,1.5c-0.6,1-2.4,3-3.3,5.6c1.9-2.2,1.8-2,3-3.1c0.3-0.3,0.8-0.6,1,0c0.3,0.7,0.3,0.8-0.1,1.4  c-0.3,0.5-1.8,1.9-3.4,4.9c0.8-0.9,1.2-1.4,1.4-1.5c0.3-0.3,0.6-0.7,1-0.1c0.5,0.7,0.2,0.7,0,1.2c-0.1,0.4-1.7,2.9-2.8,5  c0.8-0.9,0.9-1.1,1.3-1.3c0.2-0.1,0.4,0,0.5,0.3s0.1,0.8,0,1c-1,2.1-1.6,2.4-2.7,6.1c0.9-1.1,1-1.2,1.4-1.7c0.3-0.2,0.7-0.6,1,0  c0.2,0.3,0.3,0.7,0.1,1.3c-0.5,1.2-0.6,1.4-1.6,3.5c0.3-0.1,0.4,0,0.6,0.3c0.8-1,1.7-1.9,2.4-2.6c2.7-2.8,5.2-5,9-7.5  c4.3-2.9,7.9-4.6,10.4-5.6c1.3-0.4,2.3-0.8,2.8-0.8c0.5-0.1,0.9,0,0.9,0.4s-0.1,0.7-0.3,0.8c-0.7,0.4-1.2,0.6-3,1.5  C117.1,15,120.5,14.6,122,14.8 M87,26.8c0.2-0.8,0.7-2.4,1.6-4.2c-1,1.3-1.5,2.3-2,3.6C86.8,26.3,87,26.5,87,26.8 M83.8,25.8  c1.2-3.8,3.1-10.6,6.4-15.6C87.9,12.7,84.5,18.2,83.8,25.8 M96.3,27.9c2.8-2.2,11.6-8.2,18-10.4C106.7,19.3,100.7,23.7,96.3,27.9   M105.2,38.1c-0.4-1.1-1.5-1.8-2.9-1.7c-0.8-1.5-2.1-0.8-2.5-0.4c0.4,0.4,0.7,0.5,1.2,0.6v0.3c-0.9,0-1.2-0.4-1.8-1.1  c-0.3,2.2,2.3,3,3.1,1.2c1.2,0,1.9,0.5,2.2,1.3c0.3,0.8,0,1.6-0.4,2c-0.7,0.9-1.9,0.9-3,0.3c-0.7-0.3-1.4-1-2-1.7  c-0.9-1-1.4-1.5-2.1-1.8c-0.4-0.2-0.8-0.3-1.1-0.3c-0.2,0-0.4-0.1-0.7-0.1c-0.2,0-0.4,0-0.6,0.1c-1.6,0.2-3.2,0.9-5.1,1.1h-1  c-0.6,0.6-1.2,1.1-1.7,1.5l-1.2,1l0,0c-0.5,0.5-0.8,0.7-0.8,0.7c0.1,1.1,0.2,1.7,0.2,2.7c0,0.8,0,1.3,0,1.6c0,0.4-0.1,0.7-0.2,1  s-0.3,0.5-0.7,0.5c-0.3,0.1-1.1-0.5-1.4-0.1c-0.2,0.3,0,1,0.3,1.2h2.2c0.3-0.6,0.4-0.9,0.5-1.2c0.2-0.3,0.3-0.7,0.5-0.9  c0.2-0.3,0.3-0.6,0.4-0.9c0-0.3,0.1-0.5,0.2-0.7c0.2-0.4,0.4-0.8,0.5-1c0-0.1,0.1-0.1,0.1-0.2c0.1,0.1,0.2,0.3,0.3,0.4  c0.5,0.8,1,1.4,1.7,1.7c0.3,0.1,0.5,0.3,0.6,0.4c0.1,0.1,0.1,0.4,0.1,0.7S90,46.9,89.7,47c-0.5,0.2-1.2-0.5-1.5-0.1  c-0.3,0.3,0,0.8,0.3,1.2h2c0.5-0.8,0.7-1.8,0.7-2.7s0-1.1-0.6-1.4c-0.2-0.1-0.4-0.6-0.5-1c0-0.1,0-0.1,0-0.3c0.9-0.3,2-0.9,3.1-1.7  c0,0.1,0,0.3,0,0.5c0.2,1.3,0.3,2.4,1.3,3.3c0.3,0.3,0.5,0.5,0.5,0.7c0,0.1-0.1,0.5-0.3,0.7c-0.2,0.5-0.7,0.9-1.1,0.9  c-0.5,0.1-1-0.6-1.4-0.2c-0.3,0.3,0.1,1,0.3,1.2h2c0.7-1.2,1.6-2.2,1.9-2.9c0.2-0.5,0.2-0.7-0.2-0.8c-0.7-0.4-0.6-1.2-0.4-2.1  c0-0.2,0.1-0.3,0.2-0.5c0.5,1.4,1.2,2.7,2.7,3.1c0.3,0,0.6,0.2,0.7,0.3c0,0.1,0,0.4,0,0.6c-0.1,0.4-0.3,1-0.7,1.2  c-0.4,0.3-1.3-0.7-1.6-0.1c-0.2,0.4,0.1,1,0.3,1.2h2c0.5-1.2,1-2.3,1.2-3.1c0.1-0.9,0.1-1.3-0.6-1.4c-0.4,0-0.7-0.2-0.8-0.7  c-0.3-0.9-0.2-2.5-0.9-3.5c0.8,0.9,1.6,1.6,2.3,2c1.7,0.9,3.5,0.6,4.3-0.6C105.4,39.8,105.4,38.8,105.2,38.1 M88.7,30  c0,0.1,0.1,0.3,0.3,0.3c0.1,0,0.3-0.1,0.3-0.3c0-0.1-0.1-0.3-0.3-0.3C88.8,29.7,88.7,29.9,88.7,30 M84.3,39.8v0.9l0.3-0.2  c-0.1-0.2-0.1-0.5-0.2-0.7H84.3z"/>
<polygon class="st2" points="184.6,48 184.6,40.8 186.5,40.8 188.2,45.9 190,40.8 191.7,40.8 191.7,48 190.4,48 190.4,42.6   188.6,47.5 187.4,47.5 185.7,42.5 185.7,48 "/>
<path class="st2" d="M181.2,45.1H179l1.1-2.8L181.2,45.1z M183.8,48l-2.8-7.1h-1.5l-2.8,7.1h1.1l0.7-1.9h3l0.7,1.9H183.8z"/>
<path class="st2" d="M175,44.3c0,0.5-0.1,1-0.3,1.4s-0.4,0.7-0.7,0.9s-0.8,0.3-1.3,0.3h-1.1v-5.1h0.9c0.7,0,1.2,0.1,1.6,0.3  c0.3,0.2,0.5,0.5,0.7,0.9C175,43.4,175,43.8,175,44.3 M176.6,44.3c0-0.7-0.1-1.3-0.4-1.9c-0.3-0.5-0.6-0.9-1.1-1.2s-1.1-0.4-1.9-0.4  h-3.1V48h2.9c0.9,0,1.5-0.2,2-0.5s0.9-0.8,1.1-1.3C176.5,45.6,176.6,45,176.6,44.3"/>
<path class="st2" d="M166.9,42.8c0,0.3-0.1,0.6-0.4,0.9c-0.2,0.3-0.7,0.4-1.3,0.4H165v-2.3h0.5c0.6,0,1,0.1,1.2,0.3  C166.8,42.2,166.9,42.5,166.9,42.8 M168,43.8c0.2-0.4,0.4-0.8,0.4-1.2c0-0.3-0.1-0.7-0.2-0.9c-0.2-0.3-0.4-0.5-0.7-0.6  s-0.7-0.2-1.3-0.2h-2.7V48h1.4v-2.9h0.8l1.8,2.9h1.8l-2.3-3.3C167.5,44.4,167.8,44.2,168,43.8"/>
<polygon class="st2" points="157.6,48 157.6,40.8 162.2,40.8 162.2,41.8 159.1,41.8 159.1,43.8 161.7,43.8 161.7,44.8 159.1,44.8   159.1,47 162.4,47 162.4,48 "/>
<polygon class="st2" points="153,48 153,41.8 150.4,41.8 150.4,40.8 157,40.8 157,41.8 154.5,41.8 154.5,48 "/>
<path class="st2" d="M145.7,46.7c0.6,0.2,1,0.4,1.2,0.4c0.3,0,0.5,0.1,0.8,0.1c0.4,0,0.7-0.1,0.9-0.3s0.3-0.4,0.3-0.7  c0-0.2-0.1-0.4-0.2-0.5c-0.1-0.2-0.4-0.4-0.8-0.6l-0.5-0.3c-0.7-0.4-1.2-0.7-1.4-1.1c-0.2-0.3-0.4-0.7-0.4-1.1c0-0.5,0.2-1,0.6-1.4  c0.4-0.4,1-0.6,1.8-0.6c0.6,0,1.2,0.1,1.9,0.2V42c-0.7-0.3-1.3-0.4-1.8-0.4c-0.4,0-0.6,0.1-0.8,0.2c-0.2,0.2-0.3,0.3-0.3,0.6  c0,0.2,0.1,0.3,0.2,0.5c0.1,0.1,0.4,0.3,0.8,0.6l0.5,0.3c0.8,0.4,1.3,0.8,1.5,1.1s0.3,0.7,0.3,1.1c0,0.6-0.2,1.1-0.7,1.5  c-0.4,0.4-1.2,0.6-2.1,0.6c-0.6,0-1.2-0.1-2-0.2v-1.2H145.7z"/>
<polygon class="st2" points="137,48 137,40.8 139,40.8 140.7,45.9 142.5,40.8 144.2,40.8 144.2,48 142.9,48 142.9,42.6 141.1,47.5   139.9,47.5 138.2,42.5 138.2,48 "/>
<path class="st2" d="M133.5,45.1h-2.2l1.1-2.8L133.5,45.1z M136.1,48l-2.8-7.1h-1.5L129,48h1.1l0.7-1.9h3l0.7,1.9H136.1z"/>
<rect x="188.3" y="27.8" class="st2" width="1.5" height="7.1"/>
<polygon class="st2" points="182.3,34.9 182.3,27.8 186.9,27.8 186.9,28.8 183.8,28.8 183.8,30.8 186.3,30.8 186.3,31.8 183.8,31.8   183.8,33.9 187.1,33.9 187.1,34.9 "/>
<polygon class="st2" points="177.7,34.9 177.7,28.8 175.2,28.8 175.2,27.8 181.8,27.8 181.8,28.8 179.2,28.8 179.2,34.9 "/>
<rect x="173.1" y="27.8" class="st2" width="1.5" height="7.1"/>
<path class="st2" d="M167.1,33.6c0.6,0.2,1,0.4,1.2,0.4c0.3,0,0.5,0.1,0.8,0.1c0.4,0,0.7-0.1,0.9-0.3s0.3-0.4,0.3-0.7  c0-0.2-0.1-0.4-0.2-0.5c-0.1-0.2-0.4-0.4-0.8-0.6l-0.5-0.3c-0.7-0.4-1.2-0.7-1.4-1.1c-0.2-0.3-0.4-0.7-0.4-1.1c0-0.5,0.2-1,0.6-1.4  c0.4-0.4,1-0.6,1.8-0.6c0.6,0,1.2,0.1,1.9,0.2V29c-0.7-0.3-1.3-0.4-1.8-0.4c-0.4,0-0.6,0.1-0.8,0.2c-0.2,0.2-0.3,0.3-0.3,0.6  c0,0.2,0.1,0.3,0.2,0.5c0.1,0.1,0.4,0.3,0.8,0.6l0.5,0.3c0.8,0.4,1.3,0.8,1.5,1.1c0.2,0.3,0.3,0.7,0.3,1.1c0,0.6-0.2,1.1-0.7,1.5  c-0.4,0.4-1.2,0.6-2.1,0.6c-0.6,0-1.2-0.1-2-0.2v-1.3H167.1z"/>
<path class="st2" d="M164.2,29.7c0,0.3-0.1,0.6-0.4,0.9c-0.2,0.3-0.7,0.4-1.3,0.4h-0.3v-2.3h0.5c0.6,0,1,0.1,1.2,0.3  C164.1,29.2,164.2,29.4,164.2,29.7 M165.3,30.8c0.2-0.4,0.4-0.8,0.4-1.2c0-0.3-0.1-0.7-0.2-0.9c-0.2-0.3-0.4-0.5-0.7-0.6  s-0.7-0.2-1.2-0.2h-2.7V35h1.4v-3h0.8l1.8,2.9h1.8l-2.3-3.3C164.8,31.4,165.1,31.1,165.3,30.8"/>
<polygon class="st2" points="154.8,34.9 154.8,27.8 159.4,27.8 159.4,28.8 156.3,28.8 156.3,30.8 158.9,30.8 158.9,31.8 156.3,31.8   156.3,33.9 159.6,33.9 159.6,34.9 "/>
<polygon class="st2" points="150,34.9 147.4,27.8 148.9,27.8 151,33.3 153,27.8 154,27.8 151.5,34.9 "/>
<rect x="144.9" y="27.8" class="st2" width="1.5" height="7.1"/>
<polygon class="st2" points="137.2,34.9 137.2,27.8 138.5,27.8 141.8,32.7 141.8,27.8 143,27.8 143,34.9 141.6,34.9 138.4,30.1   138.4,34.9 "/>
<path class="st2" d="M129.8,27.8h1.5v4.4c0,0.8,0.1,1.3,0.4,1.6c0.3,0.3,0.6,0.4,1,0.4s0.8-0.1,1-0.4c0.2-0.3,0.4-0.7,0.4-1.5v-4.5  h1.3v4.4c0,0.8-0.1,1.4-0.3,1.8c-0.2,0.4-0.5,0.6-0.9,0.8s-0.9,0.3-1.5,0.3s-1.1-0.1-1.5-0.3s-0.8-0.5-1-0.9s-0.4-1-0.4-1.8V27.8z"/>
<polygon class="st2" points="150.9,21.9 150.9,14.8 155.5,14.8 155.5,15.7 152.4,15.7 152.4,17.7 154.9,17.7 154.9,18.7 152.4,18.7   152.4,20.9 155.7,20.9 155.7,21.9 "/>
<path class="st2" d="M145.5,22.1c0.4,0.2,0.8,0.2,1.2,0.2c0.2,0,0.3,0,0.5-0.1c0.1-0.1,0.2-0.2,0.3-0.3c0.1-0.1,0.1-0.4,0.1-0.9  v-6.2h1.5v6.1c0,0.7-0.1,1.2-0.2,1.5c-0.2,0.3-0.4,0.6-0.7,0.7c-0.3,0.2-0.8,0.3-1.3,0.3c-0.4,0-0.8-0.1-1.3-0.2L145.5,22.1z"/>
<rect x="143.5" y="14.8" class="st2" width="1.5" height="7.1"/>
<path class="st2" d="M140.1,16.7c0,0.3-0.1,0.6-0.3,0.9s-0.7,0.4-1.3,0.4h-0.3v-2.3h0.5c0.6,0,1,0.1,1.2,0.3  C140,16.2,140.1,16.4,140.1,16.7 M141.2,17.7c0.2-0.4,0.4-0.8,0.4-1.2c0-0.3-0.1-0.7-0.2-0.9c-0.2-0.3-0.4-0.5-0.7-0.6  s-0.7-0.2-1.2-0.2h-2.7v7.1h1.4V19h0.8l1.8,2.9h1.8l-2.3-3.3C140.6,18.4,141,18.1,141.2,17.7"/>
<polygon class="st2" points="131.7,21.9 129.1,14.8 130.7,14.8 132.7,20.3 134.7,14.8 135.8,14.8 133.2,21.9 "/>
<polygon class="st2" points="194.4,34.9 194.4,28.8 197,28.8 197,27.8 190.4,27.8 190.4,28.8 192.9,28.8 192.9,34.9 "/>
<polygon class="st1" points="212.9,0 212.9,21.1 221.2,29.4 223,31.2 212.9,41.3 212.9,62.5 331.1,62.5 331.1,0 "/>
<rect y="0" class="st3" width="331.1" height="62.5"/>
<rect y="0" class="st4" width="0" height="62.5"/>
<g>
	<g>
		<defs>
			<rect id="SVGID_1_" y="0" width="331.1" height="62.5"/>
		</defs>
		<clipPath id="SVGID_2_">
			<use xlink:href="#SVGID_1_" style="overflow:visible;"/>
		</clipPath>
		<g class="st5">
			
				<text transform="matrix(1 0 0 1 -101.8081 21.9462)" class="st1" style="font-family:'LucidaSansEFOP-DemiBold'; font-size:9.8951px;">F</text>
			
				<text transform="matrix(1 0 0 1 -96.9081 21.9462)" class="st1" style="font-family:'LucidaSansEFOP-DemiBold'; font-size:9.8951px;">a</text>
			
				<text transform="matrix(1 0 0 1 -91.5081 21.9462)" class="st1" style="font-family:'LucidaSansEFOP-DemiBold'; font-size:9.8951px;">cu</text>
			
				<text transform="matrix(1 0 0 1 -80.9081 21.9462)" class="st1" style="font-family:'LucidaSansEFOP-DemiBold'; font-size:9.8951px;">l</text>
			
				<text transform="matrix(1 0 0 1 -78.0081 21.9462)" class="st1" style="font-family:'LucidaSansEFOP-DemiBold'; font-size:9.8951px;">t</text>
			
				<text transform="matrix(1 0 0 1 -74.4081 21.9462)" class="st1" style="font-family:'LucidaSansEFOP-DemiBold'; font-size:9.8951px;">e</text>
			
				<text transform="matrix(1 0 0 1 -69.1081 21.9462)" class="st1" style="font-family:'LucidaSansEFOP-DemiBold'; font-size:9.8951px;">i</text>
			
				<text transform="matrix(1 0 0 1 -66.2081 21.9462)" class="st1" style="font-family:'LucidaSansEFOP-DemiBold'; font-size:9.8951px;">t </text>
			
				<text transform="matrix(1 0 0 1 -59.5081 21.9462)" class="st1" style="font-family:'LucidaSansEFOP-DemiBold'; font-size:9.8951px;">d</text>
			
				<text transform="matrix(1 0 0 1 -53.5081 21.9462)" class="st1" style="font-family:'LucidaSansEFOP-DemiBold'; font-size:9.8951px;">e</text>
			
				<text transform="matrix(1 0 0 1 -48.2081 21.9462)" class="st1" style="font-family:'LucidaSansEFOP-DemiBold'; font-size:9.8951px;">r </text>
		</g>
	</g>
	<g>
		<defs>
			<rect id="SVGID_3_" y="0" width="331.1" height="62.5"/>
		</defs>
		<clipPath id="SVGID_4_">
			<use xlink:href="#SVGID_3_" style="overflow:visible;"/>
		</clipPath>
		<g class="st7">
			
				<text transform="matrix(1 0 0 1 -101.8081 34.9584)" class="st1" style="font-family:'LucidaSansEFOP-DemiBold'; font-size:9.8951px;">G</text>
			
				<text transform="matrix(1 0 0 1 -95.0081 34.9584)" class="st1" style="font-family:'LucidaSansEFOP-DemiBold'; font-size:9.8951px;">e</text>
			
				<text transform="matrix(1 0 0 1 -89.6081 34.9584)" class="st1" style="font-family:'LucidaSansEFOP-DemiBold'; font-size:9.8951px;">e</text>
			
				<text transform="matrix(1 0 0 1 -84.3081 34.9584)" class="st1" style="font-family:'LucidaSansEFOP-DemiBold'; font-size:9.8951px;">s</text>
			
				<text transform="matrix(1 0 0 1 -79.4081 34.9584)" class="st1" style="font-family:'LucidaSansEFOP-DemiBold'; font-size:9.8951px;">t</text>
			
				<text transform="matrix(1 0 0 1 -75.8081 34.9584)" class="st1" style="font-family:'LucidaSansEFOP-DemiBold'; font-size:9.8951px;">e</text>
			
				<text transform="matrix(1 0 0 1 -70.5081 34.9584)" class="st1" style="font-family:'LucidaSansEFOP-DemiBold'; font-size:9.8951px;">s</text>
			
				<text transform="matrix(1 0 0 1 -65.5081 34.9584)" class="st1" style="font-family:'LucidaSansEFOP-DemiBold'; font-size:9.8951px;">-</text>
		</g>
	</g>
	<g>
		<defs>
			<rect id="SVGID_5_" y="0" width="331.1" height="62.5"/>
		</defs>
		<clipPath id="SVGID_6_">
			<use xlink:href="#SVGID_5_" style="overflow:visible;"/>
		</clipPath>
		<g class="st8">
			
				<text transform="matrix(1 0 0 1 -101.8081 47.9701)" class="st1" style="font-family:'LucidaSansEFOP-DemiBold'; font-size:9.8951px;">w</text>
			
				<text transform="matrix(1 0 0 1 -94.1081 47.9701)" class="st1" style="font-family:'LucidaSansEFOP-DemiBold'; font-size:9.8951px;">e</text>
			
				<text transform="matrix(1 0 0 1 -88.8081 47.9701)" class="st1" style="font-family:'LucidaSansEFOP-DemiBold'; font-size:9.8951px;">t</text>
			
				<text transform="matrix(1 0 0 1 -85.2081 47.9701)" class="st1" style="font-family:'LucidaSansEFOP-DemiBold'; font-size:9.8951px;">e</text>
			
				<text transform="matrix(1 0 0 1 -79.9081 47.9701)" class="st1" style="font-family:'LucidaSansEFOP-DemiBold'; font-size:9.8951px;">n</text>
			
				<text transform="matrix(1 0 0 1 -74.0081 47.9701)" class="st1" style="font-family:'LucidaSansEFOP-DemiBold'; font-size:9.8951px;">sc</text>
			
				<text transform="matrix(1 0 0 1 -64.1081 47.9701)" class="st1" style="font-family:'LucidaSansEFOP-DemiBold'; font-size:9.8951px;">h</text>
			
				<text transform="matrix(1 0 0 1 -58.1081 47.9701)" class="st1" style="font-family:'LucidaSansEFOP-DemiBold'; font-size:9.8951px;">a</text>
			
				<text transform="matrix(1 0 0 1 -52.8081 47.9701)" class="st1" style="font-family:'LucidaSansEFOP-DemiBold'; font-size:9.8951px;">p</text>
			
				<text transform="matrix(1 0 0 1 -46.8081 47.9701)" class="st1" style="font-family:'LucidaSansEFOP-DemiBold'; font-size:9.8951px;">p</text>
			
				<text transform="matrix(1 0 0 1 -40.7081 47.9701)" class="st1" style="font-family:'LucidaSansEFOP-DemiBold'; font-size:9.8951px;">e</text>
			
				<text transform="matrix(1 0 0 1 -35.4081 47.9701)" class="st1" style="font-family:'LucidaSansEFOP-DemiBold'; font-size:9.8951px;">n</text>
		</g>
	</g>
</g>
<g class="st6">
	<path class="st4" d="M231.5,16.3v2h2.3v0.9h-2.3v2.8h-1.4v-6.6h4.2v0.9H231.5z"/>
</g>
<g class="st6">
	<path class="st4" d="M238.5,22.1c-0.5,0-0.9-0.1-1-0.6h0c-0.4,0.4-0.8,0.6-1.4,0.6c-0.8,0-1.4-0.6-1.4-1.4c0-0.5,0.2-0.9,0.6-1.2   c0.5-0.4,1.3-0.5,1.9-0.5h0.4v-0.4c0-0.6-0.3-0.8-0.9-0.8c-0.6,0-1.1,0.2-1.6,0.4v-0.9c0.6-0.2,1.1-0.3,1.8-0.3   c0.5,0,1.1,0.1,1.5,0.5c0.3,0.3,0.4,0.6,0.4,1.1v2.2c0,0.3,0,0.6,0.4,0.6c0.1,0,0.1,0,0.2,0l0,0.7C239,22,238.8,22.1,238.5,22.1z    M237.4,19.7h-0.3c-0.5,0-1.3,0.1-1.3,0.8c0,0.4,0.3,0.6,0.6,0.6c0.4,0,0.7-0.2,0.9-0.5V19.7z"/>
</g>
<g class="st6">
	<path class="st4" d="M242.5,22.1c-1.6,0-2.5-1-2.5-2.6c0-1.6,1-2.6,2.6-2.6c0.5,0,0.9,0.1,1.4,0.2v0.9c-0.4-0.1-0.9-0.3-1.3-0.3   c-0.9,0-1.3,0.9-1.3,1.7c0,0.9,0.4,1.7,1.4,1.7c0.4,0,0.8-0.1,1.2-0.3v0.9C243.5,22,243,22.1,242.5,22.1z"/>
	<path class="st4" d="M248.3,21.9V21c-0.4,0.6-0.9,1-1.7,1c-0.9,0-1.4-0.7-1.4-1.5v-3.5h1.3v3.1c0,0.4,0,0.8,0.6,0.8   c0.6,0,0.9-0.5,1.2-0.9v-3.1h1.3v4.9H248.3z"/>
</g>
<g class="st6">
	<path class="st4" d="M251,21.9v-7h1.3v7H251z"/>
</g>
<g class="st6">
	<path class="st4" d="M255.7,22.1c-1.1,0-1.7-0.4-1.7-1.6v-2.6h-0.6v-0.8h0.6v-0.8l1.3-0.1v1h1v0.8h-1v2.4c0,0.5,0.1,0.9,0.7,0.9   c0.1,0,0.3,0,0.4-0.1v0.8C256.2,22,256,22.1,255.7,22.1z"/>
</g>
<g class="st6">
	<path class="st4" d="M259.7,22.1c-1.6,0-2.6-1-2.6-2.6c0-1.4,0.9-2.5,2.4-2.5c0.9,0,1.6,0.4,1.9,1.4c0.1,0.5,0.1,1,0.2,1.5h-3   c0.1,0.9,0.6,1.4,1.5,1.4c0.5,0,1-0.1,1.5-0.3v0.9C260.9,21.9,260.3,22.1,259.7,22.1z M259.4,17.8c-0.7,0-0.9,0.7-0.9,1.2h1.8   C260.2,18.5,260.1,17.8,259.4,17.8z"/>
</g>
<g class="st6">
	<path class="st4" d="M262.8,16.2v-1.1h1.3v1.1H262.8z M262.8,21.9v-4.9h1.3v4.9H262.8z"/>
</g>
<g class="st6">
	<path class="st4" d="M267.5,22.1c-1.1,0-1.7-0.4-1.7-1.6v-2.6h-0.6v-0.8h0.6v-0.8l1.3-0.1v1h1v0.8h-1v2.4c0,0.5,0.1,0.9,0.7,0.9   c0.1,0,0.3,0,0.4-0.1v0.8C268,22,267.8,22.1,267.5,22.1z"/>
</g>
<g class="st6">
	<path class="st4" d="M275.5,21.9V21c-0.3,0.7-0.8,1-1.6,1c-1.4,0-1.9-1.2-1.9-2.4c0-1.3,0.6-2.7,2.1-2.7c0.6,0,1,0.2,1.4,0.6v-2.6   h1.3v7H275.5z M275.5,18.3c-0.3-0.3-0.6-0.5-1-0.5c-0.9,0-1.1,1.1-1.1,1.7c0,0.6,0.2,1.5,1,1.5c0.5,0,0.9-0.4,1.1-0.8V18.3z"/>
</g>
<g class="st6">
	<path class="st4" d="M280.6,22.1c-1.6,0-2.6-1-2.6-2.6c0-1.4,0.9-2.5,2.4-2.5c0.9,0,1.6,0.4,1.9,1.4c0.1,0.5,0.1,1,0.2,1.5h-3   c0.1,0.9,0.6,1.4,1.5,1.4c0.5,0,1-0.1,1.5-0.3v0.9C281.8,21.9,281.2,22.1,280.6,22.1z M280.3,17.8c-0.7,0-0.9,0.7-0.9,1.2h1.8   C281.1,18.5,281,17.8,280.3,17.8z"/>
</g>
<g class="st6">
	<path class="st4" d="M286.3,18.1c-0.6,0-1,0.3-1.3,0.8v3.1h-1.3v-4.9h1.3V18c0.3-0.6,0.9-1,1.6-1c0.1,0,0.2,0,0.2,0v1.2   C286.7,18.1,286.5,18.1,286.3,18.1z"/>
</g>
<g class="st6">
	<path class="st4" d="M233.3,35.1c-0.9,0-1.8-0.1-2.5-0.7c-0.8-0.7-1.1-1.7-1.1-2.7c0-1,0.3-2,1-2.6c0.7-0.7,1.6-0.8,2.5-0.8   c0.7,0,1.4,0.1,2.1,0.2v1.1c-0.7-0.2-1.3-0.4-2-0.4c-0.6,0-1.1,0.1-1.5,0.5c-0.5,0.5-0.7,1.3-0.7,2c0,1.5,0.8,2.5,2.3,2.5   c0.2,0,0.4,0,0.6-0.1V32h1.4v2.8C234.7,35,234,35.1,233.3,35.1z"/>
</g>
<g class="st6">
	<path class="st4" d="M239.1,35.1c-1.6,0-2.6-1-2.6-2.6c0-1.4,0.9-2.5,2.4-2.5c0.9,0,1.6,0.4,1.9,1.4c0.1,0.5,0.1,1,0.2,1.5h-3   c0.1,0.9,0.6,1.4,1.5,1.4c0.5,0,1-0.1,1.5-0.3v0.9C240.3,35,239.7,35.1,239.1,35.1z M238.8,30.8c-0.7,0-0.9,0.7-0.9,1.2h1.8   C239.6,31.5,239.5,30.8,238.8,30.8z"/>
</g>
<g class="st6">
	<path class="st4" d="M244.5,35.1c-1.6,0-2.6-1-2.6-2.6c0-1.4,0.9-2.5,2.4-2.5c0.9,0,1.6,0.4,1.9,1.4c0.1,0.5,0.1,1,0.2,1.5h-3   c0.1,0.9,0.6,1.4,1.5,1.4c0.5,0,1-0.1,1.5-0.3v0.9C245.7,35,245.1,35.1,244.5,35.1z M244.2,30.8c-0.7,0-0.9,0.7-0.9,1.2h1.8   C245,31.5,244.9,30.8,244.2,30.8z"/>
</g>
<g class="st6">
	<path class="st4" d="M249.3,35.1c-0.6,0-1.2-0.1-1.8-0.3v-1c0.5,0.2,1.1,0.4,1.7,0.4c0.3,0,0.8-0.1,0.8-0.6c0-0.9-2.5-0.7-2.5-2.3   c0-1.1,1.1-1.5,2-1.5c0.5,0,1,0.1,1.4,0.2v0.9c-0.4-0.1-0.9-0.3-1.3-0.3c-0.3,0-0.8,0.1-0.8,0.5c0,0.8,2.5,0.6,2.5,2.2   C251.3,34.6,250.2,35.1,249.3,35.1z"/>
</g>
<g class="st6">
	<path class="st4" d="M254.3,35.1c-1.1,0-1.7-0.4-1.7-1.6v-2.6H252v-0.8h0.6v-0.8l1.3-0.1v1h1v0.8h-1v2.4c0,0.5,0.1,0.9,0.7,0.9   c0.1,0,0.3,0,0.4-0.1v0.8C254.8,35,254.6,35.1,254.3,35.1z"/>
</g>
<g class="st6">
	<path class="st4" d="M258.3,35.1c-1.6,0-2.6-1-2.6-2.6c0-1.4,0.9-2.5,2.4-2.5c0.9,0,1.6,0.4,1.9,1.4c0.1,0.5,0.1,1,0.2,1.5h-3   c0.1,0.9,0.6,1.4,1.5,1.4c0.5,0,1-0.1,1.5-0.3v0.9C259.5,35,258.9,35.1,258.3,35.1z M258,30.8c-0.7,0-0.9,0.7-0.9,1.2h1.8   C258.8,31.5,258.7,30.8,258,30.8z"/>
</g>
<g class="st6">
	<path class="st4" d="M263.1,35.1c-0.6,0-1.2-0.1-1.8-0.3v-1c0.5,0.2,1.1,0.4,1.7,0.4c0.3,0,0.8-0.1,0.8-0.6c0-0.9-2.5-0.7-2.5-2.3   c0-1.1,1.1-1.5,2-1.5c0.5,0,1,0.1,1.4,0.2v0.9c-0.4-0.1-0.9-0.3-1.3-0.3c-0.3,0-0.8,0.1-0.8,0.5c0,0.8,2.5,0.6,2.5,2.2   C265.1,34.6,264,35.1,263.1,35.1z"/>
</g>
<g class="st6">
	<path class="st4" d="M266,32.6v-0.8h2v0.8H266z"/>
</g>
<g class="st6">
	<path class="st4" d="M235.4,48h-1.3l-0.9-3.4l-1,3.4H231l-1.4-4.9h1.2l1,3.4l1-3.4h1.1l0.9,3.4l1-3.4h0.9L235.4,48z"/>
</g>
<g class="st6">
	<path class="st4" d="M240,48.1c-1.6,0-2.6-1-2.6-2.6c0-1.4,0.9-2.5,2.4-2.5c0.9,0,1.6,0.4,1.9,1.4c0.1,0.5,0.1,1,0.2,1.5h-3   c0.1,0.9,0.6,1.4,1.5,1.4c0.5,0,1-0.1,1.5-0.3v0.9C241.2,48,240.6,48.1,240,48.1z M239.7,43.8c-0.7,0-0.9,0.7-0.9,1.2h1.8   C240.5,44.5,240.4,43.8,239.7,43.8z"/>
</g>
<g class="st6">
	<path class="st4" d="M244.9,48.1c-1.1,0-1.7-0.4-1.7-1.6v-2.6h-0.6v-0.8h0.6v-0.8l1.3-0.1v1h1v0.8h-1v2.4c0,0.5,0.1,0.9,0.7,0.9   c0.1,0,0.3,0,0.4-0.1v0.8C245.4,48,245.2,48.1,244.9,48.1z"/>
</g>
<g class="st6">
	<path class="st4" d="M248.9,48.1c-1.6,0-2.6-1-2.6-2.6c0-1.4,0.9-2.5,2.4-2.5c0.9,0,1.6,0.4,1.9,1.4c0.1,0.5,0.1,1,0.2,1.5h-3   c0.1,0.9,0.6,1.4,1.5,1.4c0.5,0,1-0.1,1.5-0.3v0.9C250.1,48,249.5,48.1,248.9,48.1z M248.6,43.8c-0.7,0-0.9,0.7-0.9,1.2h1.8   C249.4,44.5,249.3,43.8,248.6,43.8z"/>
</g>
<g class="st6">
	<path class="st4" d="M255.1,48v-3.1c0-0.4,0-0.8-0.6-0.8c-0.6,0-0.9,0.5-1.2,0.9V48H252v-4.9h1.3V44c0.4-0.6,0.9-1,1.7-1   c0.9,0,1.4,0.7,1.4,1.6V48H255.1z"/>
</g>
<g class="st6">
	<path class="st4" d="M259.6,48.1c-0.6,0-1.2-0.1-1.8-0.3v-1c0.5,0.2,1.1,0.4,1.7,0.4c0.3,0,0.8-0.1,0.8-0.6c0-0.9-2.5-0.7-2.5-2.3   c0-1.1,1.1-1.5,2-1.5c0.5,0,1,0.1,1.4,0.2v0.9c-0.4-0.1-0.9-0.3-1.3-0.3c-0.3,0-0.8,0.1-0.8,0.5c0,0.8,2.5,0.6,2.5,2.2   C261.6,47.6,260.5,48.1,259.6,48.1z"/>
	<path class="st4" d="M265.2,48.1c-1.6,0-2.5-1-2.5-2.6c0-1.6,1-2.6,2.6-2.6c0.5,0,0.9,0.1,1.4,0.2v0.9c-0.4-0.1-0.9-0.3-1.3-0.3   c-0.9,0-1.3,0.9-1.3,1.7c0,0.9,0.4,1.7,1.4,1.7c0.4,0,0.8-0.1,1.2-0.3v0.9C266.2,48,265.7,48.1,265.2,48.1z"/>
</g>
<g class="st6">
	<path class="st4" d="M270.9,48v-3.1c0-0.4,0-0.8-0.6-0.8c-0.6,0-0.9,0.5-1.2,0.9V48h-1.3v-7h1.3V44c0.4-0.6,0.9-1,1.7-1   c0.9,0,1.4,0.7,1.4,1.6V48H270.9z"/>
</g>
<g class="st6">
	<path class="st4" d="M277.3,48.1c-0.5,0-0.9-0.1-1-0.6h0c-0.4,0.4-0.8,0.6-1.4,0.6c-0.8,0-1.4-0.6-1.4-1.4c0-0.5,0.2-0.9,0.6-1.2   c0.5-0.4,1.3-0.5,1.9-0.5h0.4v-0.4c0-0.6-0.3-0.8-0.9-0.8c-0.6,0-1.1,0.2-1.6,0.4v-0.9c0.6-0.2,1.1-0.3,1.8-0.3   c0.5,0,1.1,0.1,1.5,0.5c0.3,0.3,0.4,0.6,0.4,1.1v2.2c0,0.3,0,0.6,0.4,0.6c0.1,0,0.1,0,0.2,0l0,0.7C277.8,48,277.6,48.1,277.3,48.1z    M276.2,45.7h-0.3c-0.5,0-1.3,0.1-1.3,0.8c0,0.4,0.3,0.6,0.6,0.6c0.4,0,0.7-0.2,0.9-0.5V45.7z"/>
</g>
<g class="st6">
	<path class="st4" d="M281.8,48.1c-0.6,0-1-0.2-1.4-0.6v2.3h-1.3v-6.6h1.3V44c0.3-0.7,0.9-1,1.6-1c1.4,0,1.9,1.2,1.9,2.4   C283.9,46.7,283.3,48.1,281.8,48.1z M281.6,44c-0.5,0-0.9,0.4-1.1,0.8v1.9c0.3,0.3,0.6,0.5,1,0.5c0.9,0,1.1-1.1,1.1-1.7   C282.5,44.9,282.3,44,281.6,44z"/>
</g>
<g class="st6">
	<path class="st4" d="M287.8,48.1c-0.6,0-1-0.2-1.4-0.6v2.3h-1.3v-6.6h1.3V44c0.3-0.7,0.9-1,1.6-1c1.4,0,1.9,1.2,1.9,2.4   C289.9,46.7,289.3,48.1,287.8,48.1z M287.6,44c-0.5,0-0.9,0.4-1.1,0.8v1.9c0.3,0.3,0.6,0.5,1,0.5c0.9,0,1.1-1.1,1.1-1.7   C288.5,44.9,288.3,44,287.6,44z"/>
</g>
<g class="st6">
	<path class="st4" d="M293.4,48.1c-1.6,0-2.6-1-2.6-2.6c0-1.4,0.9-2.5,2.4-2.5c0.9,0,1.6,0.4,1.9,1.4c0.1,0.5,0.1,1,0.2,1.5h-3   c0.1,0.9,0.6,1.4,1.5,1.4c0.5,0,1-0.1,1.5-0.3v0.9C294.6,48,294,48.1,293.4,48.1z M293.1,43.8c-0.7,0-0.9,0.7-0.9,1.2h1.8   C293.9,44.5,293.8,43.8,293.1,43.8z"/>
</g>
<g class="st6">
	<path class="st4" d="M299.6,48v-3.1c0-0.4,0-0.8-0.6-0.8c-0.6,0-0.9,0.5-1.2,0.9V48h-1.3v-4.9h1.3V44c0.4-0.6,0.9-1,1.7-1   c0.9,0,1.4,0.7,1.4,1.6V48H299.6z"/>
</g>
</svg>